<svg xmlns="http://www.w3.org/2000/svg" viewBox="0 0 32 32">
  <defs>
    <linearGradient id="g1" x1="0%" y1="0%" x2="100%" y2="100%">
      <stop offset="0%" style="stop-color:#2196F3" />
      <stop offset="100%" style="stop-color:#1565C0" />
    </linearGradient>
    <linearGradient id="g2" x1="0%" y1="0%" x2="100%" y2="100%">
      <stop offset="0%" style="stop-color:#4CAF50" />
      <stop offset="100%" style="stop-color:#2E7D32" />
    </linearGradient>
  </defs>
  
  <!-- Background -->
  <circle cx="16" cy="16" r="15" fill="#1a1a2e" />
  
  <!-- Left container (blue) -->
  <rect x="3" y="8" width="10" height="14" rx="1.5" fill="url(#g1)" />
  <rect x="4.5" y="10" width="7" height="2" rx="0.5" fill="rgba(255,255,255,0.4)" />
  <rect x="4.5" y="13" width="7" height="2" rx="0.5" fill="rgba(255,255,255,0.4)" />
  <rect x="4.5" y="16" width="7" height="2" rx="0.5" fill="rgba(255,255,255,0.4)" />
  
  <!-- Right container (green) -->
  <rect x="19" y="8" width="10" height="14" rx="1.5" fill="url(#g2)" />
  <rect x="20.5" y="10" width="7" height="2" rx="0.5" fill="rgba(255,255,255,0.4)" />
  <rect x="20.5" y="13" width="7" height="2" rx="0.5" fill="rgba(255,255,255,0.4)" />
  <rect x="20.5" y="16" width="7" height="2" rx="0.5" fill="rgba(255,255,255,0.4)" />
  
  <!-- Compare arrows -->
  <path d="M14 13.5 L16.5 15 L14 16.5 Z" fill="#fff" />
  <path d="M18 13.5 L15.5 15 L18 16.5 Z" fill="#fff" />
  
  <!-- Diff dots -->
  <circle cx="11" cy="26" r="1.5" fill="#FF9800" />
  <circle cx="16" cy="26" r="1.5" fill="#4CAF50" />
  <circle cx="21" cy="26" r="1.5" fill="#f44336" />
</svg>
